<?xml version="1.0" encoding="UTF-8" standalone="no"?>
<!-- Created with Inkscape (http://www.inkscape.org/) -->

<svg
   width="210mm"
   height="297mm"
   viewBox="0 0 210 297"
   version="1.1"
   id="svg5"
   inkscape:version="1.1.1 (1:1.1+202109281949+c3084ef5ed)"
   sodipodi:docname="icons.svg"
   xmlns:inkscape="http://www.inkscape.org/namespaces/inkscape"
   xmlns:sodipodi="http://sodipodi.sourceforge.net/DTD/sodipodi-0.dtd"
   xmlns="http://www.w3.org/2000/svg"
   xmlns:svg="http://www.w3.org/2000/svg">
  <sodipodi:namedview
     id="namedview7"
     pagecolor="#ffffff"
     bordercolor="#999999"
     borderopacity="1"
     inkscape:pageshadow="0"
     inkscape:pageopacity="0"
     inkscape:pagecheckerboard="0"
     inkscape:document-units="mm"
     showgrid="false"
     inkscape:zoom="0.90583672"
     inkscape:cx="628.14852"
     inkscape:cy="306.3466"
     inkscape:window-width="1920"
     inkscape:window-height="1016"
     inkscape:window-x="0"
     inkscape:window-y="27"
     inkscape:window-maximized="1"
     inkscape:current-layer="layer1" />
  <defs
     id="defs2" />
  <g
     inkscape:label="Layer 1"
     inkscape:groupmode="layer"
     id="layer1">
    <circle
       style="fill:#ffcc00;stroke:none;stroke-width:0.299999;stroke-linecap:round;stroke-linejoin:round;stroke-dashoffset:5.78268;paint-order:stroke fill markers"
       id="path846"
       cx="88.908379"
       cy="63.953838"
       r="54.107281" />
    <g
       id="g15925"
       transform="translate(-124.53034,-6.9480042)">
      <path
         id="path14244"
         style="fill:#00ff00;stroke:none;stroke-width:14.3622;stroke-linecap:round;stroke-linejoin:round;stroke-miterlimit:4;stroke-dasharray:none;stroke-dashoffset:5.78268;paint-order:stroke fill markers"
         d="m 710.83203,162.42969 a 47.970219,47.970219 0 0 0 -45.4082,32.5957 55.188825,55.188825 0 0 0 -50.13281,54.92969 55.188825,55.188825 0 0 0 55.1875,55.18945 55.188825,55.188825 0 0 0 24.74023,-5.88476 47.970219,47.970219 0 0 0 33.19727,13.375 47.970219,47.970219 0 0 0 39.96875,-21.48047 49.629245,49.629245 0 0 0 47.35156,-49.54297 49.629245,49.629245 0 0 0 -49.63086,-49.62891 49.629245,49.629245 0 0 0 -10.52539,1.14649 47.970219,47.970219 0 0 0 -44.74805,-30.69922 z"
         transform="scale(0.26458333)" />
      <rect
         style="fill:#ff6600;stroke:#000000;stroke-width:4.3;stroke-linecap:round;stroke-linejoin:round;stroke-miterlimit:4;stroke-dasharray:none;stroke-dashoffset:5.78268;paint-order:stroke fill markers"
         id="rect14723"
         width="9.3833733"
         height="25.831957"
         x="185.70808"
         y="76.674652" />
      <path
         id="path14246"
         style="fill:#00d400;stroke:none;stroke-width:14.3622;stroke-linecap:round;stroke-linejoin:round;stroke-miterlimit:4;stroke-dasharray:none;stroke-dashoffset:5.78268;paint-order:stroke fill markers"
         d="m 713.48242,177.73633 a 54.06463,54.06463 0 0 0 -48.4668,30.14453 54.06463,54.06463 0 0 0 -37.18359,51.33008 54.06463,54.06463 0 0 0 17.52149,39.83594 c 7.62842,3.91591 16.20159,6.0872 25.125,6.09765 8.5924,-0.009 17.06403,-2.024 24.74023,-5.88476 8.92595,8.57402 20.82043,13.36624 33.19727,13.375 16.0812,-0.008 31.08851,-8.07352 39.96875,-21.48047 5.52064,-0.26263 10.88312,-1.46622 15.91211,-3.45899 a 54.06463,54.06463 0 0 0 13.4121,-35.55664 54.06463,54.06463 0 0 0 -40.68359,-52.3789 54.06463,54.06463 0 0 0 -43.54297,-22.02344 z"
         transform="scale(0.26458333)" />
      <path
         id="path14244-4"
         style="fill:none;stroke:#000000;stroke-width:1.9;stroke-linecap:round;stroke-linejoin:round;stroke-miterlimit:4;stroke-dasharray:none;stroke-dashoffset:5.78268;paint-order:stroke fill markers"
         d="m 188.07431,42.976188 a 12.69212,12.69212 0 0 0 -12.01426,8.624279 14.602043,14.602043 0 0 0 -13.2643,14.53348 14.602043,14.602043 0 0 0 14.60169,14.602208 14.602043,14.602043 0 0 0 6.54585,-1.557009 12.69212,12.69212 0 0 0 8.78345,3.538802 12.69212,12.69212 0 0 0 10.57506,-5.683374 13.131071,13.131071 0 0 0 12.52844,-13.108244 13.131071,13.131071 0 0 0 -13.1315,-13.130982 13.131071,13.131071 0 0 0 -2.78485,0.303342 12.69212,12.69212 0 0 0 -11.83958,-8.122502 z" />
    </g>
    <path
       id="rect12259"
       style="fill:#0000ff;stroke:#000000;stroke-width:4.30001;stroke-linecap:round;stroke-linejoin:round;stroke-miterlimit:26;stroke-dasharray:none;stroke-dashoffset:5.78268;paint-order:stroke fill markers"
       d="m 108.42411,39.646612 -31.2999,27.18852 11.170894,0.106971 v 29.07161 h 5.79906 V 78.011071 h 13.304606 v 18.002642 h 19.23508 V 67.307972 l 11.17089,0.106971 z"
       sodipodi:nodetypes="cccccccccccc" />
    <rect
       style="fill:#ff7f2a;stroke:#000000;stroke-width:3.8;stroke-linecap:round;stroke-linejoin:round;stroke-miterlimit:4;stroke-dasharray:none;stroke-dashoffset:5.78268;paint-order:stroke fill markers"
       id="rect12965"
       width="7.9472694"
       height="8.4481688"
       x="113.91232"
       y="69.965874" />
    <path
       id="path13022"
       style="fill:#ff0000;stroke:#ff0000;stroke-width:0.999999px;stroke-linecap:butt;stroke-linejoin:miter;stroke-opacity:1"
       d="m 409.79102,149.8457 -118.29883,102.75977 20.15234,0.19336 104.37305,-90.66406 89.50317,92.59765 15.31519,0.0645 z"
       transform="scale(0.26458333)"
       sodipodi:nodetypes="ccccccc" />
    <path
       id="path13022-6"
       style="fill:#ff5555;stroke:none;stroke-width:0.264583px;stroke-linecap:butt;stroke-linejoin:miter;stroke-opacity:1"
       d="m 108.97772,41.423454 25.42337,25.974498 -5.28973,0.05116 -17.60609,-21.07283 -27.238062,20.493004 -1.81126,0.01707 z"
       sodipodi:nodetypes="ccccccc" />
  </g>
</svg>
